PathFileType	4	(X/Y/Z)	52_1_21_p0_0-500_filt_butterworth.trc
DataRate	CameraRate	NumFrames	NumMarkers	Units	OrigDataRate	OrigDataStartFrame	OrigNumFrames
60.0	60.0	7	27	m	60.0	187	500
Frame#	Time	RHip			RKnee			RAnkle			RBigToe			RSmallToe			RHeel			LHip			LKnee			LAnkle			LBigToe			LSmallToe			LHeel			Neck			Head			Nose			RShoulder			RElbow			RWrist			RThumb			RIndex			RPinky			LShoulder			LElbow			LWrist			LThumb			LIndex			LPinky			
		X1	Y1	Z1	X2	Y2	Z2	X3	Y3	Z3	X4	Y4	Z4	X5	Y5	Z5	X6	Y6	Z6	X7	Y7	Z7	X8	Y8	Z8	X9	Y9	Z9	X10	Y10	Z10	X11	Y11	Z11	X12	Y12	Z12	X13	Y13	Z13	X14	Y14	Z14	X15	Y15	Z15	X16	Y16	Z16	X17	Y17	Z17	X18	Y18	Z18	X19	Y19	Z19	X20	Y20	Z20	X21	Y21	Z21	X22	Y22	Z22	X23	Y23	Z23	X24	Y24	Z24	X25	Y25	Z25	X26	Y26	Z26	X27	Y27	Z27	
187	3.1166666666666667	0.21043868677366073	0.6002353011456081	0.49297545884450544	0.12619466939413435	0.6641599398132562	0.8764067959188149	0.030834654592062197	0.8332630907959804	1.2800145997365435	0.009244165157484142	0.6262995249264312	1.3111662940027908	0.07570177359675449	0.6203859368263099	1.3220686776184694	0.005273118185317019	0.9107905189560473	1.3181241532477257	0.014860081221670133	0.580656953069826	0.44726400362710395	-0.07491412697730186	0.6592243433601466	0.8225915961080132	-0.1505118293806779	0.7765101939803922	1.211724722844977	-0.1344026353698251	0.5762066829163641	1.2524521110405196	-0.19121491808406169	0.6341442781964433	1.2549016343945154	-0.1422494658757567	0.8558561413565792	1.2810529499013954	0.20743168920494404	0.37098693049492354	0.11642108445146575	0.21918235926297025	0.1000067010349769	-0.07862410486299445	0.19730753664881345	0.17043885771988643	0.07627565688339624	0.3361859976617263	0.41209671903700884	0.15214837304218784	0.32561045894067264	0.4964272432373978	0.37687094477422817	0.28953841917771544	0.3025741864762028	0.464419134739921	0.2654467032605424	0.14988802900299444	0.4757752091029383	0.26567763355529234	0.16958189097807794	0.48636919573629933	0.2697634758054634	0.2694630918629236	0.5301050807130232	0.07064336618024636	0.40383988759490047	0.07126643623098544	-0.0920433348865226	0.5830173872730714	0.041855723107881264	-0.03468583835269432	0.4532101560168119	0.15474136005587794	0.027566098468152708	0.47159595161912643	0.22355957082717953	0.03255995063358216	0.4962894488567793	0.23660344138508488	0.011090135671016048	0.4740937855185101	0.2369583858442001
188	3.1333333333333333	0.20970094263776445	0.6001203088047857	0.49148492651979536	0.12585695536279676	0.6644394854957025	0.8765440445578782	0.030443835004	0.8330773636385999	1.2798313348207746	0.008624615940003936	0.6236997129245561	1.3110622292714713	0.07583370504294956	0.6206608450231205	1.3232682340740167	0.005265094843456528	0.9107373812215959	1.3180248189544028	0.013589042392956064	0.5804843863423189	0.44700242922566213	-0.07500063743550182	0.6591328235376893	0.8225485977627134	-0.1504910650421524	0.7759766161768532	1.2114340329516156	-0.13457359365195115	0.5775196241240059	1.2528545796920874	-0.19152901661668248	0.6305609544975108	1.2536559970262693	-0.14211887664618825	0.855843581996261	1.2808256314889883	0.2061136352546771	0.36712296337880823	0.1160424669831054	0.21455598166007045	0.10378079403300289	-0.07850896814135304	0.1953156337848401	0.17058644258458672	0.07500004592044114	0.33575953427222033	0.41238306176982986	0.15215476952827817	0.3235759385784225	0.4920311697800105	0.377567661575927	0.28744785482883983	0.30307166415301157	0.4663057865179081	0.2596658277524683	0.15722439166016988	0.4796963200703768	0.2608741870327987	0.17484958901986497	0.4886412044155302	0.26792663200741756	0.2688741754068909	0.5344754913531123	0.07006608727921809	0.4082242045214447	0.07242441813772939	-0.08834518525263962	0.585441832974547	0.04530962198833274	-0.03263377287694952	0.439599626845004	0.15582924945618953	0.02757435268442158	0.4715923712840351	0.22354291398543788	0.032559402294181354	0.4962895344957226	0.23660543171818293	0.011090329204762245	0.47409619493496763	0.23696032033223477
189	3.15	0.20868679560708464	0.6000251278744373	0.4895805351779092	0.1258643621861762	0.6648788605788464	0.8765049016329911	0.029146310570163706	0.8327560845087081	1.279659175351974	0.007976573809738789	0.6197817473307536	1.3108852506736675	0.0757765680344383	0.6212249111412897	1.3254039507827788	0.005253891121050302	0.9107226517017284	1.3179525791272837	0.012911359417809716	0.580002348370502	0.4460783961602408	-0.07491158493650696	0.6597567527463404	0.8226210943476778	-0.15051836713632297	0.7756676541834302	1.2111877878653563	-0.13459238514630487	0.5778520766025828	1.2529910663559767	-0.1918045498307808	0.6273436161350594	1.2525211478330822	-0.1420325488796377	0.8558330491922208	1.2806600980644531	0.2048928415209156	0.36550555077705477	0.11552081651129133	0.2091613378285206	0.11047431675414857	-0.079209502501322	0.19144324801566212	0.17306154570589283	0.07431124124824576	0.3353123926809457	0.41264761770184305	0.15223474905108925	0.32301301516329545	0.4907068713624979	0.37792536221235407	0.2856430019009856	0.3037370290882593	0.4687899993643996	0.25519489058342704	0.16456478272469582	0.48318691145966547	0.25677439552023146	0.18024329723300736	0.4919855823245129	0.26689432142834446	0.26782773387106945	0.5380334920609667	0.06908543343629105	0.4099715057748924	0.07375193678859245	-0.08652469011456314	0.5859530766438783	0.04852038630529436	-0.0316700069488205	0.43132373369993526	0.15584497170474404	0.02758336030935022	0.4715877320233531	0.22351158047590328	0.03255924774531414	0.496289450071154	0.23660591488813548	0.011080712865759066	0.47405823122543633	0.23694541685954384
190	3.1666666666666665	0.20745440066784243	0.6000176856719137	0.48834110669180086	0.1259719597343775	0.6650866920407345	0.8765565112102992	0.026990725113255686	0.8324506744588326	1.27981624430398	0.007902175573917664	0.6163728267542053	1.3103419400013325	0.07497720328792395	0.6219593534254624	1.3268868260003668	0.005248364778745269	0.9108107070575107	1.317975149595218	0.012790582182625007	0.5797856510164346	0.44551171527343103	-0.07440702059625084	0.6619566326466196	0.823051314129252	-0.15056230531598996	0.775668582352401	1.2110962520850852	-0.134569206349903	0.5776928571044115	1.2529729677824735	-0.19186828143878243	0.6273690552365996	1.2525493641395897	-0.14199881125843566	0.8558539773976616	1.2806603112091748	0.2038232947911744	0.3653696448638681	0.11529227799738254	0.20236844352473743	0.11739587332135976	-0.08104663537179062	0.18597042834050778	0.17875859842484215	0.0742739369321883	0.3346436091125224	0.4124131022750709	0.15244748331400387	0.3231027402115561	0.4908450068971467	0.3780385985034648	0.28325706429304565	0.30412706869024375	0.4708460079147935	0.25190093202618985	0.1691139437169216	0.48488948290315437	0.2535413229147793	0.1843122587124147	0.4953362595630818	0.2664079051184814	0.2675735163743847	0.5405487466456415	0.06796355593130118	0.40975203191916265	0.07501530477676863	-0.08675060788973556	0.5861633261299873	0.051074891976891586	-0.03180659510610104	0.4280787069433098	0.1549643068471605	0.027586962493963176	0.47158571547677813	0.22349615174616494	0.03255928371876394	0.4962893771223881	0.23660573605970953	0.011074702245753656	0.4740341067335357	0.2369357085978323
191	3.183333333333333	0.20653031586595932	0.5998677928944729	0.4886178318243808	0.12600594344406046	0.6651227961427699	0.8769779527226715	0.02482389487289994	0.8323365683457974	1.2803707636688344	0.00866509308484114	0.6136151097129863	1.3088783937286121	0.07318320571829362	0.6224207138520743	1.3258256195356843	0.005264679899305304	0.9110323458770735	1.3181151451575768	0.012854667534657313	0.5800168384750123	0.4458771514966452	-0.07347968318613601	0.666141098211571	0.8240738634203517	-0.1505824821282514	0.7760883645243719	1.2113173387793212	-0.1345567739748451	0.5774223822596909	1.2529161708447971	-0.19175115773389007	0.6294972720384694	1.2533393395968828	-0.14197934645947502	0.8561870844576056	1.281132675938263	0.20219471624581997	0.36532178297377055	0.1153855565259126	0.19444365918519246	0.12187953333918654	-0.08362872856655348	0.180158587579397	0.18553191243861905	0.0744227479860767	0.3334520113968203	0.41076181483166196	0.15248594417943157	0.32316549954966084	0.4911282080505834	0.3780024994647206	0.2805621815725278	0.30453169608204433	0.47153643019448666	0.24845903820820775	0.1706715730985096	0.4849741839557722	0.2506002771750153	0.18623902485589308	0.49731453300331896	0.26583684803062274	0.2680245270758295	0.5414451325915351	0.0666729755175118	0.4119392266790264	0.07595213875016646	-0.08789513138970173	0.586598437419467	0.05355676105950494	-0.0322971267112559	0.4268833429905773	0.15383789287603736	0.02758703107668869	0.47158558012265517	0.22349411561747842	0.03255934318446031	0.4962893521756317	0.23660550899155702	0.011073286281370668	0.4740282714119679	0.23693327041120918
192	3.2	0.20637464493269933	0.5985853083133097	0.4906253846497771	0.12588858216148283	0.6651060905205407	0.8782251392122906	0.02379885422694678	0.8323293715569778	1.2806905996918359	0.00972666295314798	0.6100311528085103	1.306303366168315	0.07119118798665154	0.62233802657591	1.3224146366156448	0.005321408035708664	0.911310094326087	1.3183051827102428	0.012722103448002405	0.5807394658609814	0.44739165862303054	-0.07253683119912553	0.6712978008440055	0.8258851044163463	-0.15057212349587215	0.776851588934065	1.2118140388623904	-0.1345611890792872	0.5772032501795257	1.2528726178227019	-0.19163737258080732	0.6294763780525363	1.253338137993913	-0.14196386032492653	0.8571002519290569	1.282340071351213	0.1987586591592631	0.36461985237027644	0.11560752530955845	0.1861148521798447	0.12455905709567189	-0.08618188672246735	0.1755715123431667	0.19017818420091104	0.0745464643956273	0.3318984203674568	0.40710713511802776	0.15167788592045267	0.32290342963546814	0.4911123071769113	0.37768573222629753	0.278352443968428	0.3058558434606796	0.4709452935542368	0.24420496076312814	0.17095298130069705	0.4842389793948838	0.2469391503839005	0.1865894662564368	0.49750640580818983	0.2643580358518899	0.2685496001826227	0.5403805091091878	0.06480078421953565	0.4191470022462641	0.07647877277388407	-0.08953930745193255	0.586813728355723	0.05615539033120186	-0.03253687964293045	0.426048182616666	0.15300897685770923	0.02758620761723539	0.47158598096982046	0.22349656199534226	0.032559371417015655	0.49628935424104426	0.23660541115477485	0.011073853096821209	0.47403045204739747	0.23693409218363876
193	3.216666666666667	0.20708509199716357	0.5951057974480458	0.4935982684634862	0.12566178956421348	0.6651001799543234	0.88032102658533	0.024256146780203634	0.8322242980044787	1.2802077574566404	0.010358878905707502	0.6055671454520011	1.3034032216786788	0.07039885627608272	0.6219076799055376	1.318617671620305	0.005403923646594239	0.911476893036777	1.3184037868495777	0.012339027119632839	0.5817897602020616	0.4496350340406884	-0.07189092791750462	0.6756449884200346	0.828614335815705	-0.15054516820855213	0.7775468712934671	1.21228149117461	-0.13457164823871082	0.5770793113770585	1.2528443357667274	-0.19158564178548526	0.6261176749095961	1.2521065584176647	-0.14198200062351868	0.8583602046480564	1.2839617768605467	0.19326239236414353	0.36337431287454697	0.11560788012095684	0.17807250725118798	0.12780773775334878	-0.08818178491547322	0.17233172568879748	0.1932285931008671	0.07472363942729979	0.3306093344402107	0.40250183327740213	0.14984413481958364	0.32255634381031123	0.4908861775913269	0.3768101492178563	0.27679255315529644	0.3088828982362384	0.4695225300968362	0.23939147434872043	0.17192704542574863	0.4832197390729712	0.242533640695871	0.18631542046987004	0.49642287629338316	0.2618554848585145	0.26893501774719686	0.5379308591491254	0.06268889385155463	0.42923509850966646	0.07656022883365152	-0.09286983427897898	0.5854245884011563	0.058500993511478305	-0.03249869761539443	0.4254659613376366	0.15273135080733982	0.027585680416464545	0.47158626211712923	0.22349856875099774	0.03255937463092107	0.49628936151942005	0.23660540506507138	0.011074545047546729	0.4740332073456277	0.23693518801036606
